<svg width="459" height="158" viewBox="0 0 459 158" fill="none" xmlns="http://www.w3.org/2000/svg">
<circle cx="79" cy="79" r="79" fill="#FD6969"/>
<path d="M287.673 85.7243C286.883 86.0424 286.174 86.5318 285.595 87.1571C285.017 87.7824 284.585 88.5281 284.33 89.3405C283.986 90.2003 283.946 91.1515 284.215 92.0373C284.484 92.9232 285.047 93.6909 285.811 94.2141C286.287 94.5244 286.842 94.6897 287.41 94.6897C287.978 94.6897 288.533 94.5244 289.008 94.2141C289.602 93.6556 290.09 92.9954 290.451 92.2646C290.897 91.6622 291.441 91.1385 292.059 90.7148C293.323 89.7666 294.891 89.3156 296.465 89.4477C298.609 89.6914 300.539 91.1729 302.099 92.557C303.111 93.5222 304.068 94.5441 304.965 95.6177C306.914 97.84 308.863 100.14 310.764 102.441L310.823 102.509C311.102 102.879 311.47 103.172 311.892 103.363C312.314 103.554 312.778 103.636 313.24 103.601C316.018 103.601 318.796 103.542 321.574 103.601C321.761 103.638 321.955 103.633 322.141 103.587C322.326 103.541 322.5 103.454 322.648 103.333C322.796 103.212 322.915 103.059 322.998 102.886C323.08 102.714 323.123 102.525 323.124 102.333C323.64 99.4775 324.254 96.6509 324.751 93.7949C325.02 92.3771 325.6 91.0366 326.449 89.8701C327.299 88.7037 328.397 87.7404 329.664 87.0499C330.213 86.7048 330.833 86.488 331.478 86.4154C332.122 86.3429 332.775 86.4165 333.387 86.6308C334.937 87.2838 335.863 89.087 336.428 90.5296C337.067 92.4093 337.322 94.3979 337.179 96.3779C337.091 98.3274 336.77 100.355 336.692 102.353C336.611 102.975 336.767 103.604 337.128 104.116C337.489 104.629 338.029 104.987 338.641 105.121C339.351 105.374 340.129 105.358 340.827 105.076C341.526 104.794 342.097 104.266 342.433 103.591C343.488 101.836 344.314 99.952 344.889 97.9862C345.542 95.5051 345.465 92.888 344.666 90.4497C343.867 88.0115 342.381 85.8561 340.386 84.2427C336.779 81.1041 331.613 80.8507 327.247 82.4005C325.659 82.9274 324.163 83.6968 322.812 84.6813C321.002 86.1059 319.531 87.9134 318.503 89.974C317.763 91.561 317.112 93.1881 316.554 94.8476C316.115 95.9783 315.579 96.1343 314.809 95.335C313.633 93.9799 312.359 92.7127 310.998 91.5433C308.771 89.6887 306.369 88.0564 303.824 86.6698C299.048 84.4864 293.044 83.5604 288.043 85.5586L287.751 85.6853L287.673 85.7243ZM312.333 82.7611C313.308 82.3615 315.375 72.7215 315.998 70.5479C319.01 60.1087 322.305 49.7377 325.57 39.357C327.315 33.8498 329.274 28.7033 328.982 22.7868C328.806 19.2096 327.539 15.9637 324.108 14.5212C320.349 12.9265 316.179 12.5748 312.207 13.5172C308.425 14.3945 304.867 19.3655 307.869 22.8647C311.086 26.6369 313.386 19.7067 315.511 18.1861C316.027 17.7898 316.622 17.5097 317.257 17.365C317.891 17.2203 318.549 17.2145 319.186 17.3478C320.011 17.6215 320.748 18.1112 321.321 18.7659C321.893 19.4206 322.28 20.2166 322.441 21.0713C322.813 23.4364 322.711 25.852 322.139 28.177C319.78 40.8483 317.051 53.3637 314.731 66.0057C314.419 67.6823 314.098 69.349 313.834 71.0255C313.328 74.2324 312.753 77.4294 312.255 80.6362C312.173 81.3617 312.173 82.0942 312.255 82.8196" fill="#1C1F2C"/>
<path d="M36.6736 58.3543C31.7407 58.5273 26.9225 59.8882 22.6279 62.3214C18.4951 64.5925 13.7385 67.926 11.2237 72.0101C10.273 73.4468 9.85567 75.1712 10.0443 76.8836C10.6487 81.0652 15.2006 81.6793 18.3782 79.8663C20.4641 78.6771 21.7702 76.6984 23.1348 74.7588C25.0842 72.049 26.5073 68.9787 28.9831 66.7271C31.2172 64.6903 34.0122 63.3726 37.005 62.9452C37.8386 62.8353 38.6859 62.8962 39.4952 63.1241C40.3046 63.352 41.0591 63.7421 41.7129 64.2708C44.9587 66.6881 45.3778 71.0451 45.5143 74.788C45.6958 78.486 45.1289 82.1825 43.8475 85.6561C42.8454 88.1313 41.4607 90.4337 39.744 92.4791C38.1522 94.5986 36.2985 96.5079 34.2271 98.1617C32.2776 99.6043 29.7824 100.228 27.716 101.544C26.9264 102.051 26.6048 102.811 27.4138 103.591C27.993 104.228 28.7033 104.732 29.4957 105.068C30.2882 105.405 31.1441 105.566 32.0047 105.54C36.157 105.238 39.3931 103.123 42.4927 100.501C46.2351 97.2645 49.48 93.4941 52.1229 89.3113C57.2012 81.5136 56.3824 69.3101 49.4034 62.76C45.9583 59.7168 41.4713 58.121 36.8783 58.3055H36.6736" fill="#1C1F2C"/>
<path d="M68.0693 92.6448C67.8256 99.7895 69.1122 106.057 75.945 105.521C80.5554 105.16 84.7174 102.197 87.4077 98.4639C91.1116 93.4148 92.2813 87.2644 94.7278 81.65C95.3497 80.1039 96.0962 78.611 96.9599 77.1858C97.4266 76.4621 97.9907 75.8061 98.6364 75.2364C99.3745 74.7819 100.087 74.2873 100.771 73.7548C101.609 72.858 101.746 71.3765 100.42 70.9184C98.4985 70.1412 96.3738 70.0212 94.3769 70.5772C92.2716 71.411 90.505 72.9238 89.3571 74.8757C87.4344 77.7979 85.8393 80.9228 84.6005 84.194C83.1287 87.8492 81.4716 91.4362 79.7951 94.9939C78.8204 96.9433 77.7482 98.7953 76.676 100.667C76.5298 100.92 76.2861 101.222 75.9742 101.242C75.4771 101.242 75.3407 100.813 75.3212 100.404C75.3212 99.5848 75.4089 98.7465 75.4576 97.9278C75.7156 94.9532 76.1386 91.9952 76.7248 89.0676C77.1829 86.4164 77.6995 83.7651 78.1284 81.1042C81.15 63.8224 84.5615 46.4919 86.3452 29.0348C86.576 26.479 86.2432 23.9037 85.3705 21.4904C84.6747 19.1312 83.3225 17.0185 81.4716 15.3985C80.183 14.3515 78.6324 13.6774 76.9879 13.449C75.1394 13.2331 73.2664 13.3923 71.4808 13.9169C70.6226 14.1274 69.8251 14.5345 69.1512 15.106C68.4196 15.7657 67.9463 16.6639 67.8158 17.6403C67.7464 18.5432 67.9384 19.4471 68.3688 20.2438C68.7991 21.0406 69.4497 21.6967 70.2429 22.1338C70.5769 22.3131 70.9587 22.3832 71.3346 22.3342C71.7105 22.2853 72.0616 22.1197 72.3385 21.8608C72.9526 21.4125 73.5472 20.8861 74.132 20.4377C74.6703 19.9262 75.2853 19.5019 75.9547 19.1804C76.2608 19.0459 76.5982 18.9986 76.9295 19.0439C77.2096 19.1448 77.4614 19.3118 77.6633 19.5306C77.8652 19.7495 78.0114 20.0139 78.0894 20.3013C80.0388 25.4575 77.7775 31.5788 76.8222 36.735C75.7111 42.7198 74.6486 48.7078 73.6349 54.6991C72.5432 61.1972 71.5035 67.6953 70.5158 74.1934C70.009 77.5659 68.274 85.5879 68.0303 92.713" fill="#1C1F2C"/>
<path d="M198.136 92.9664C198.214 96.8652 199.588 100.277 203.594 100.618C204.217 100.73 204.858 100.694 205.466 100.515C206.073 100.336 206.63 100.017 207.093 99.5847C208.234 98.2981 207.951 96.4851 207.668 94.9353C206.976 91.1339 205.212 86.1629 207.6 82.6441C208.443 81.4464 209.542 80.4503 210.816 79.7273C212.09 79.0043 213.508 78.5724 214.969 78.4626C217.893 78.3261 220.252 80.2561 222.143 82.2347C224.443 84.6325 226.705 87.1083 229.054 89.4476C229.62 90.0591 230.389 90.4436 231.217 90.5296C233.245 90.5296 235.272 90.1397 237.309 89.9545C237.677 89.9498 238.032 89.8152 238.31 89.5744C238.588 89.3336 238.773 89.0021 238.83 88.6386C240.448 82.6636 241.101 74.6417 247.524 71.8053C251.209 70.1775 255.527 69.9923 258.958 72.3316C261.111 73.9681 262.853 76.084 264.046 78.5113C265.393 81.0986 266.961 83.5642 268.734 85.8802C269.816 87.2058 271.113 88.4339 272.926 87.6444C273.476 87.4024 273.929 86.9826 274.211 86.4522C274.494 85.9219 274.591 85.312 274.485 84.7203C274.29 78.1507 271.035 71.3959 265.04 68.2768C261.532 66.7362 257.737 65.9578 253.906 65.9931C250.075 66.0284 246.295 66.8765 242.817 68.4815C241.236 69.2975 239.771 70.3202 238.46 71.5226C238.04 71.893 237.641 72.2926 237.261 72.702C236.176 73.9156 235.198 75.22 234.337 76.6009C233.899 77.4635 233.366 78.2743 232.748 79.0182C232.748 79.0182 232.65 79.1449 232.602 79.1254C229.005 77.6341 224.804 75.3922 220.905 74.5735C215.947 73.4056 210.731 74.1358 206.284 76.6204C203.71 78.0856 201.628 80.28 200.299 82.9268C198.871 86.0807 198.133 89.5038 198.136 92.9664" fill="#1C1F2C"/>
<path d="M384.248 58.3542C379.305 58.5225 374.476 59.8836 370.173 62.3213C366.04 64.5924 361.284 67.9259 358.769 72.01C357.818 73.4467 357.401 75.1711 357.59 76.8836C358.204 81.0651 362.746 81.6792 365.923 79.8662C368.009 78.677 369.315 76.6984 370.68 74.7587C372.63 72.049 374.053 68.9786 376.528 66.727C378.762 64.6902 381.558 63.3725 384.55 62.9451C385.384 62.8341 386.231 62.8944 387.041 63.1223C387.85 63.3503 388.605 63.741 389.258 64.2707C392.504 66.688 392.923 71.045 393.06 74.7879C393.257 78.4953 392.707 82.2047 391.442 85.695C390.432 88.1687 389.045 90.4705 387.328 92.518C385.742 94.642 383.887 96.552 381.811 98.2006C379.862 99.6432 377.367 100.267 375.31 101.583C374.52 102.09 374.189 102.85 374.998 103.63C375.578 104.266 376.288 104.77 377.08 105.106C377.873 105.443 378.729 105.604 379.589 105.579C383.751 105.277 386.977 103.162 390.077 100.54C393.819 97.3034 397.064 93.533 399.707 89.3502C404.785 81.5524 403.976 69.349 396.997 62.7989C393.549 59.755 389.059 58.1594 384.463 58.3444H384.248" fill="#1C1F2C"/>
<path d="M421.287 67.7797C418.539 67.2729 416.969 69.5245 416.131 71.9223C415.634 73.3454 409.259 93.5708 421.053 103.493C425.566 107.295 433.471 106.69 438.394 103.386C442.526 100.598 446.464 92.4108 449.973 79.9929C452.4 71.3862 457.079 67.2046 458.57 65.265C458.753 65.0856 458.885 64.8604 458.951 64.6129C459.017 64.3654 459.016 64.1046 458.948 63.8578C458.879 63.6109 458.745 63.387 458.561 63.2093C458.376 63.0317 458.147 62.9068 457.898 62.8477C457.153 62.6383 456.375 62.5787 455.607 62.6722C454.126 62.8964 446.757 62.9159 442.536 70.8111C440.47 74.71 440.226 79.1449 439.466 83.4239C438.296 90.0618 438.043 94.5357 434.056 99.9941C432.945 101.515 430.498 103.376 428.208 102.333C422.428 99.6432 422.506 91.2704 422.915 85.695C423.266 80.9677 426.697 68.8227 421.258 67.8285" fill="#1C1F2C"/>
<path d="M186.303 106.203C185.416 100.287 181.429 96.0466 177.413 91.8748C171.428 85.6658 164.498 80.6168 157.373 75.831C156.135 74.9927 156.077 74.8562 157.149 73.7938C159.593 71.5472 161.517 68.7939 162.786 65.7264C164.056 62.6589 164.64 59.3512 164.498 56.0344C164.498 55.6348 164.323 52.8179 164.566 53.0518C166.915 55.3132 165.492 61.8243 165.083 64.7484C164.79 66.7758 164.566 69.4466 166.984 70.3141C167.902 70.5977 168.89 70.5564 169.781 70.1971C172.364 69.3198 173.592 67.3412 174.236 64.8361C175.142 61.3272 175.084 56.9117 173.076 53.7828C171.204 50.8587 167.861 49.0165 164.635 47.8468C164.02 47.6226 164.098 47.7786 163.835 47.1938C162.042 43.2072 159.088 39.2693 154.887 37.7682C150.369 36.0991 145.378 36.2494 140.968 38.1874C138.431 39.3739 136.244 41.1951 134.616 43.4746C132.989 45.7541 131.977 48.415 131.679 51.1998C131.189 55.1054 132.238 59.0485 134.603 62.1947C134.813 62.4371 134.928 62.7468 134.928 63.067C134.928 63.3873 134.813 63.6969 134.603 63.9394C132.649 66.865 131.321 70.1639 130.705 73.6281C130.215 76.2208 130.556 78.9018 131.679 81.2894C133.492 84.7594 136.036 85.3247 140.169 84.428C143.342 83.6774 146.328 82.2841 148.942 80.3341C150.111 79.4959 150.199 79.0475 151.193 79.8078C154.322 82.1666 158.299 85.081 161.369 87.5081C165.531 90.8221 169.537 94.3311 172.549 98.7758C183.905 115.346 163.26 134.256 152.47 137.433C141.68 140.611 120.08 141.332 122.098 123.563C123.404 112.061 126.123 100.745 127.683 89.2333C129.412 77.3371 129.931 65.2964 129.233 53.2955C129.138 49.7474 128.574 46.2274 127.556 42.827C127.167 41.7974 126.545 40.8718 125.738 40.1227C124.931 39.3736 123.962 38.8213 122.907 38.509C119.856 37.4856 114.856 37.3004 112.292 39.591C110.606 41.092 110.167 43.5971 110.343 45.8486C110.356 46.2184 110.453 46.5804 110.626 46.9075C110.799 47.2346 111.044 47.5185 111.342 47.7378C111.64 47.9571 111.983 48.1062 112.347 48.174C112.711 48.2419 113.085 48.2266 113.442 48.1295C114.318 48.0767 115.137 47.681 115.723 47.0281C116.942 45.4977 116.152 41.5404 118.969 41.4722C119.55 41.464 120.116 41.6607 120.567 42.0278C121.018 42.395 121.325 42.9091 121.435 43.4801C122.078 45.7075 122.499 47.9929 122.692 50.3031C123.319 66.6681 121.649 83.04 117.731 98.9415C116.269 104.683 114.466 110.355 113.472 116.194C112.731 120.551 112.263 125.083 113.14 129.44C116.454 146.011 142.265 145.708 153.844 142.375C165.755 138.954 189.646 128.602 186.303 106.193V106.203ZM149.643 39.9711C154.244 40.205 155.326 45.3223 155.784 46.9891C155.989 47.7591 156.116 47.7201 155.16 47.9638C150.866 49.0584 146.876 51.1149 143.493 53.9778C142.811 54.5626 141.543 55.7615 140.861 56.3464C140.51 56.6485 140.364 56.7167 140.228 56.1807C139.825 54.7429 139.58 53.2657 139.497 51.7749C139.497 43.5093 146.144 39.7859 149.624 39.9711H149.643ZM146.417 75.9284C145.091 76.9031 143.561 78.18 141.446 78.4042C140.618 78.4919 140.013 77.4295 139.614 76.6984C138.58 74.749 139.126 71.7176 139.896 68.9982C140.062 68.4036 144.77 73.7646 146.242 75.1292C146.768 75.636 146.739 75.6945 146.417 75.9284ZM150.803 70.548C150.706 70.548 150.53 70.3628 150.404 70.2263C148.454 68.0625 143.483 62.6333 143.639 62.4286C149.741 54.1922 155.336 53.2857 156.593 53.1103C157.1 53.0421 157.119 60.6254 152.694 68.4231C152.334 69.0567 151.183 70.5577 150.823 70.5675" fill="#1C1F2C"/>
</svg>
