<svg width="451" height="383" viewBox="0 0 451 383" fill="none" xmlns="http://www.w3.org/2000/svg">
<circle cx="226" cy="199" r="162" fill="#75373A"/>
<path fill-rule="evenodd" clip-rule="evenodd" d="M169.5 350.875C231.111 327.945 275 268.598 275 199C275 129.402 231.111 70.0547 169.5 47.1251C187.092 40.5781 206.128 37 226 37C315.47 37 388 109.53 388 199C388 288.47 315.47 361 226 361C206.128 361 187.092 357.422 169.5 350.875Z" fill="#FD6969"/>
<path d="M279.673 205.724C278.883 206.042 278.174 206.532 277.595 207.157C277.017 207.782 276.585 208.528 276.33 209.34C275.986 210.2 275.946 211.151 276.215 212.037C276.484 212.923 277.047 213.691 277.811 214.214C278.287 214.524 278.842 214.69 279.41 214.69C279.978 214.69 280.533 214.524 281.008 214.214C281.602 213.656 282.09 212.995 282.451 212.265C282.897 211.662 283.441 211.138 284.059 210.715C285.323 209.767 286.891 209.316 288.465 209.448C290.609 209.691 292.539 211.173 294.099 212.557C295.111 213.522 296.068 214.544 296.965 215.618C298.914 217.84 300.863 220.14 302.764 222.441L302.823 222.509C303.102 222.879 303.47 223.172 303.892 223.363C304.314 223.554 304.778 223.636 305.24 223.601C308.018 223.601 310.796 223.542 313.574 223.601C313.761 223.638 313.955 223.633 314.141 223.587C314.326 223.541 314.5 223.454 314.648 223.333C314.796 223.212 314.915 223.059 314.998 222.886C315.08 222.714 315.123 222.525 315.124 222.333C315.64 219.478 316.254 216.651 316.751 213.795C317.02 212.377 317.6 211.037 318.449 209.87C319.299 208.704 320.397 207.74 321.664 207.05C322.213 206.705 322.833 206.488 323.478 206.415C324.122 206.343 324.775 206.416 325.387 206.631C326.937 207.284 327.863 209.087 328.428 210.53C329.067 212.409 329.322 214.398 329.179 216.378C329.091 218.327 328.77 220.355 328.692 222.353C328.611 222.975 328.767 223.604 329.128 224.116C329.489 224.629 330.029 224.987 330.641 225.121C331.351 225.374 332.129 225.358 332.827 225.076C333.526 224.794 334.097 224.266 334.433 223.591C335.488 221.836 336.314 219.952 336.889 217.986C337.542 215.505 337.465 212.888 336.666 210.45C335.867 208.012 334.381 205.856 332.386 204.243C328.779 201.104 323.613 200.851 319.247 202.4C317.659 202.927 316.163 203.697 314.812 204.681C313.002 206.106 311.531 207.913 310.503 209.974C309.763 211.561 309.112 213.188 308.554 214.848C308.115 215.978 307.579 216.134 306.809 215.335C305.633 213.98 304.359 212.713 302.998 211.543C300.771 209.689 298.369 208.056 295.824 206.67C291.048 204.486 285.044 203.56 280.043 205.559L279.751 205.685L279.673 205.724ZM304.333 202.761C305.308 202.361 307.375 192.722 307.998 190.548C311.01 180.109 314.305 169.738 317.57 159.357C319.315 153.85 321.274 148.703 320.982 142.787C320.806 139.21 319.539 135.964 316.108 134.521C312.349 132.927 308.179 132.575 304.207 133.517C300.425 134.394 296.867 139.366 299.869 142.865C303.086 146.637 305.386 139.707 307.511 138.186C308.027 137.79 308.622 137.51 309.257 137.365C309.891 137.22 310.549 137.214 311.186 137.348C312.011 137.622 312.748 138.111 313.321 138.766C313.893 139.421 314.28 140.217 314.441 141.071C314.813 143.436 314.711 145.852 314.139 148.177C311.78 160.848 309.051 173.364 306.731 186.006C306.419 187.682 306.098 189.349 305.834 191.026C305.328 194.232 304.753 197.429 304.255 200.636C304.173 201.362 304.173 202.094 304.255 202.82" fill="#1C1F2C"/>
<path d="M28.6736 178.354C23.7407 178.527 18.9225 179.888 14.6279 182.321C10.4951 184.592 5.73851 187.926 3.22374 192.01C2.27298 193.447 1.85567 195.171 2.04433 196.884C2.64866 201.065 7.20059 201.679 10.3782 199.866C12.4641 198.677 13.7702 196.698 15.1348 194.759C17.0842 192.049 18.5073 188.979 20.9831 186.727C23.2172 184.69 26.0122 183.373 29.005 182.945C29.8386 182.835 30.6859 182.896 31.4952 183.124C32.3046 183.352 33.0591 183.742 33.7129 184.271C36.9587 186.688 37.3778 191.045 37.5143 194.788C37.6958 198.486 37.1289 202.182 35.8475 205.656C34.8454 208.131 33.4607 210.434 31.744 212.479C30.1522 214.598 28.2985 216.508 26.2271 218.162C24.2776 219.604 21.7824 220.228 19.716 221.544C18.9264 222.051 18.6048 222.811 19.4138 223.591C19.993 224.228 20.7033 224.732 21.4957 225.068C22.2882 225.405 23.1441 225.566 24.0047 225.54C28.157 225.238 31.3931 223.123 34.4927 220.501C38.2351 217.264 41.48 213.494 44.1229 209.311C49.2012 201.513 48.3824 189.31 41.4034 182.76C37.9583 179.717 33.4713 178.121 28.8783 178.305H28.6736" fill="#1C1F2C"/>
<path d="M60.0693 212.645C59.8256 219.789 61.1122 226.057 67.945 225.521C72.5554 225.16 76.7174 222.197 79.4077 218.464C83.1116 213.415 84.2813 207.264 86.7278 201.65C87.3497 200.104 88.0962 198.611 88.9599 197.186C89.4266 196.462 89.9907 195.806 90.6364 195.236C91.3745 194.782 92.0871 194.287 92.771 193.755C93.6093 192.858 93.7458 191.376 92.4201 190.918C90.4985 190.141 88.3738 190.021 86.3769 190.577C84.2716 191.411 82.505 192.924 81.3571 194.876C79.4344 197.798 77.8393 200.923 76.6005 204.194C75.1287 207.849 73.4716 211.436 71.7951 214.994C70.8204 216.943 69.7482 218.795 68.676 220.667C68.5298 220.92 68.2861 221.222 67.9742 221.242C67.4771 221.242 67.3407 220.813 67.3212 220.404C67.3212 219.585 67.4089 218.747 67.4576 217.928C67.7156 214.953 68.1386 211.995 68.7248 209.068C69.1829 206.416 69.6995 203.765 70.1284 201.104C73.15 183.822 76.5615 166.492 78.3452 149.035C78.576 146.479 78.2432 143.904 77.3705 141.49C76.6747 139.131 75.3225 137.018 73.4716 135.398C72.183 134.352 70.6324 133.677 68.9879 133.449C67.1394 133.233 65.2664 133.392 63.4808 133.917C62.6226 134.127 61.8251 134.534 61.1512 135.106C60.4196 135.766 59.9463 136.664 59.8158 137.64C59.7464 138.543 59.9384 139.447 60.3688 140.244C60.7991 141.041 61.4497 141.697 62.2429 142.134C62.5769 142.313 62.9587 142.383 63.3346 142.334C63.7105 142.285 64.0616 142.12 64.3385 141.861C64.9526 141.412 65.5472 140.886 66.132 140.438C66.6703 139.926 67.2853 139.502 67.9547 139.18C68.2608 139.046 68.5982 138.999 68.9295 139.044C69.2096 139.145 69.4614 139.312 69.6633 139.531C69.8652 139.75 70.0114 140.014 70.0894 140.301C72.0388 145.458 69.7775 151.579 68.8222 156.735C67.7111 162.72 66.6486 168.708 65.6349 174.699C64.5432 181.197 63.5035 187.695 62.5158 194.193C62.009 197.566 60.274 205.588 60.0303 212.713" fill="#1C1F2C"/>
<path d="M190.136 212.966C190.214 216.865 191.588 220.277 195.594 220.618C196.217 220.73 196.858 220.694 197.466 220.515C198.073 220.336 198.63 220.017 199.093 219.585C200.234 218.298 199.951 216.485 199.668 214.935C198.976 211.134 197.212 206.163 199.6 202.644C200.443 201.446 201.542 200.45 202.816 199.727C204.09 199.004 205.508 198.572 206.969 198.463C209.893 198.326 212.252 200.256 214.143 202.235C216.443 204.633 218.705 207.108 221.054 209.448C221.62 210.059 222.389 210.444 223.217 210.53C225.245 210.53 227.272 210.14 229.309 209.955C229.677 209.95 230.032 209.815 230.31 209.574C230.588 209.334 230.773 209.002 230.83 208.639C232.448 202.664 233.101 194.642 239.524 191.805C243.209 190.178 247.527 189.992 250.958 192.332C253.111 193.968 254.853 196.084 256.046 198.511C257.393 201.099 258.961 203.564 260.734 205.88C261.816 207.206 263.113 208.434 264.926 207.644C265.476 207.402 265.929 206.983 266.211 206.452C266.494 205.922 266.591 205.312 266.485 204.72C266.29 198.151 263.035 191.396 257.04 188.277C253.532 186.736 249.737 185.958 245.906 185.993C242.075 186.028 238.295 186.877 234.817 188.482C233.236 189.298 231.771 190.32 230.46 191.523C230.04 191.893 229.641 192.293 229.261 192.702C228.176 193.916 227.198 195.22 226.337 196.601C225.899 197.464 225.366 198.274 224.748 199.018C224.748 199.018 224.65 199.145 224.602 199.125C221.005 197.634 216.804 195.392 212.905 194.573C207.947 193.406 202.731 194.136 198.284 196.62C195.71 198.086 193.628 200.28 192.299 202.927C190.871 206.081 190.133 209.504 190.136 212.966" fill="#1C1F2C"/>
<path d="M376.248 178.354C371.305 178.523 366.476 179.884 362.173 182.321C358.04 184.592 353.284 187.926 350.769 192.01C349.818 193.447 349.401 195.171 349.59 196.884C350.204 201.065 354.746 201.679 357.923 199.866C360.009 198.677 361.315 196.698 362.68 194.759C364.63 192.049 366.053 188.979 368.528 186.727C370.762 184.69 373.558 183.373 376.55 182.945C377.384 182.834 378.231 182.894 379.041 183.122C379.85 183.35 380.605 183.741 381.258 184.271C384.504 186.688 384.923 191.045 385.06 194.788C385.257 198.495 384.707 202.205 383.442 205.695C382.432 208.169 381.045 210.471 379.328 212.518C377.742 214.642 375.887 216.552 373.811 218.201C371.862 219.643 369.367 220.267 367.31 221.583C366.52 222.09 366.189 222.85 366.998 223.63C367.578 224.266 368.288 224.77 369.08 225.106C369.873 225.443 370.729 225.604 371.589 225.579C375.751 225.277 378.977 223.162 382.077 220.54C385.819 217.303 389.064 213.533 391.707 209.35C396.785 201.552 395.976 189.349 388.997 182.799C385.549 179.755 381.059 178.159 376.463 178.344H376.248" fill="#1C1F2C"/>
<path d="M413.287 187.78C410.539 187.273 408.969 189.524 408.131 191.922C407.634 193.345 401.259 213.571 413.053 223.493C417.566 227.295 425.471 226.69 430.394 223.386C434.526 220.598 438.464 212.411 441.973 199.993C444.4 191.386 449.079 187.205 450.57 185.265C450.753 185.086 450.885 184.86 450.951 184.613C451.017 184.365 451.016 184.105 450.948 183.858C450.879 183.611 450.745 183.387 450.561 183.209C450.376 183.032 450.147 182.907 449.898 182.848C449.153 182.638 448.375 182.579 447.607 182.672C446.126 182.896 438.757 182.916 434.536 190.811C432.47 194.71 432.226 199.145 431.466 203.424C430.296 210.062 430.043 214.536 426.056 219.994C424.945 221.515 422.498 223.376 420.208 222.333C414.428 219.643 414.506 211.27 414.915 205.695C415.266 200.968 418.697 188.823 413.258 187.828" fill="#1C1F2C"/>
<path d="M178.303 226.203C177.416 220.287 173.429 216.047 169.413 211.875C163.428 205.666 156.498 200.617 149.373 195.831C148.135 194.993 148.077 194.856 149.149 193.794C151.593 191.547 153.517 188.794 154.786 185.726C156.056 182.659 156.64 179.351 156.498 176.034C156.498 175.635 156.323 172.818 156.566 173.052C158.915 175.313 157.492 181.824 157.083 184.748C156.79 186.776 156.566 189.446 158.984 190.314C159.902 190.598 160.89 190.556 161.781 190.197C164.364 189.32 165.592 187.341 166.236 184.836C167.142 181.327 167.084 176.912 165.076 173.783C163.204 170.859 159.861 169.016 156.635 167.847C156.02 167.623 156.098 167.779 155.835 167.194C154.042 163.207 151.088 159.269 146.887 157.768C142.369 156.099 137.378 156.249 132.968 158.187C130.431 159.374 128.244 161.195 126.616 163.475C124.989 165.754 123.977 168.415 123.679 171.2C123.189 175.105 124.238 179.048 126.603 182.195C126.813 182.437 126.928 182.747 126.928 183.067C126.928 183.387 126.813 183.697 126.603 183.939C124.649 186.865 123.321 190.164 122.705 193.628C122.215 196.221 122.556 198.902 123.679 201.289C125.492 204.759 128.036 205.325 132.169 204.428C135.342 203.677 138.328 202.284 140.942 200.334C142.111 199.496 142.199 199.047 143.193 199.808C146.322 202.167 150.299 205.081 153.369 207.508C157.531 210.822 161.537 214.331 164.549 218.776C175.905 235.346 155.26 254.255 144.47 257.433C133.68 260.611 112.08 261.332 114.098 243.563C115.404 232.061 118.123 220.745 119.683 209.233C121.412 197.337 121.931 185.296 121.233 173.295C121.138 169.747 120.574 166.227 119.556 162.827C119.167 161.797 118.545 160.872 117.738 160.123C116.931 159.374 115.962 158.821 114.907 158.509C111.856 157.486 106.856 157.3 104.292 159.591C102.606 161.092 102.167 163.597 102.343 165.849C102.356 166.218 102.453 166.58 102.626 166.907C102.799 167.235 103.044 167.518 103.342 167.738C103.64 167.957 103.983 168.106 104.347 168.174C104.711 168.242 105.085 168.227 105.442 168.129C106.318 168.077 107.137 167.681 107.723 167.028C108.942 165.498 108.152 161.54 110.969 161.472C111.55 161.464 112.116 161.661 112.567 162.028C113.018 162.395 113.325 162.909 113.435 163.48C114.078 165.707 114.499 167.993 114.692 170.303C115.319 186.668 113.649 203.04 109.731 218.941C108.269 224.683 106.466 230.355 105.472 236.194C104.731 240.551 104.263 245.083 105.14 249.44C108.454 266.011 134.265 265.708 145.844 262.375C157.755 258.954 181.646 248.602 178.303 226.193V226.203ZM141.643 159.971C146.244 160.205 147.326 165.322 147.784 166.989C147.989 167.759 148.116 167.72 147.16 167.964C142.866 169.058 138.876 171.115 135.493 173.978C134.811 174.563 133.543 175.761 132.861 176.346C132.51 176.648 132.364 176.717 132.228 176.181C131.825 174.743 131.58 173.266 131.497 171.775C131.497 163.509 138.144 159.786 141.624 159.971H141.643ZM138.417 195.928C137.091 196.903 135.561 198.18 133.446 198.404C132.618 198.492 132.013 197.429 131.614 196.698C130.58 194.749 131.126 191.718 131.896 188.998C132.062 188.404 136.77 193.764 138.242 195.129C138.768 195.636 138.739 195.694 138.417 195.928ZM142.803 190.548C142.706 190.548 142.53 190.363 142.404 190.226C140.454 188.062 135.483 182.633 135.639 182.429C141.741 174.192 147.336 173.286 148.593 173.11C149.1 173.042 149.119 180.625 144.694 188.423C144.334 189.057 143.183 190.558 142.823 190.567" fill="#1C1F2C"/>
<circle cx="374.5" cy="33.5" r="33.5" fill="#FD6969"/>
<circle cx="27.5" cy="306.5" r="27.5" fill="#FD6969"/>
<circle cx="48.5" cy="366.5" r="16.5" fill="#75373A"/>
</svg>
