<svg xmlns="http://www.w3.org/2000/svg" viewBox="0 0 191.4 191.75"><defs><style>.cls-1{fill:#fff;}</style></defs><g id="Слой_2" data-name="Слой 2"><g id="Слой_1-2" data-name="Слой 1"><path class="cls-1" d="M95.42,191.75c-16.72-.42-33.45-.7-50.17-1.3-8.42-.3-16.62-2.1-24-6.42C9.5,177.13,3.18,166.36,1.87,153.16.57,140.18.24,127.06.1,114Q-.22,85.59.45,57.17A123.17,123.17,0,0,1,2.9,33c4-17.57,15.64-28,33.19-30.8C46.17.54,56.52.29,66.76.17q32.85-.39,65.71.1a136.12,136.12,0,0,1,24.47,2.19c18.65,3.73,30.35,16.47,32.71,35.32A239.44,239.44,0,0,1,191.34,66q.21,35.27-.35,70.52a101,101,0,0,1-2.51,22.36c-4.39,17.88-16.54,28.25-34.51,30.51-13.15,1.66-26.54,1.5-39.83,2-6.23.22-12.47,0-18.71,0Zm.25-36.14a60,60,0,1,0-60-60.13A60.06,60.06,0,0,0,95.67,155.61ZM172.06,33a14,14,0,0,0-28,.3,14,14,0,1,0,28-.3Z"/><path class="cls-1" d="M56.81,95.56a38.89,38.89,0,1,1,38.82,38.9A38.8,38.8,0,0,1,56.81,95.56Z"/></g></g></svg>