<svg xmlns="http://www.w3.org/2000/svg" viewBox="0 0 180.78 186.12">
	<defs>
		<style>.cls-1{fill:#fff;}</style>
	</defs>
	<g id="Слой_2" data-name="Слой 2">
		<g id="Слой_1-2" data-name="Слой 1">
			<path class="cls-1" d="M0,95.18C.56,91,1,86.82,1.71,82.68,8.9,41.85,38.8,9.27,80.54,1.84c18.52-3.3,36.78-2.47,54.24,5.05,25,10.78,40,29.79,44.67,56.66,2.81,16.37,1.29,32.45-5.63,47.68-6.56,14.44-17.13,24.56-32.92,28.44a38.49,38.49,0,0,1-16.12.81c-10.08-1.8-16.07-8.2-17.51-18.38-.07-.53-.18-1-.38-2.18-.79,1-1.29,1.62-1.72,2.25C99,131.23,91,137.69,80.1,140.12c-18.72,4.15-34.41-6.44-37.43-25.38A61,61,0,0,1,94.12,44.63a80,80,0,0,1,30.77,1.87c6.84,1.7,10.74,8,9.62,15-2.31,14.3-4.67,28.58-6.78,42.9a46.29,46.29,0,0,0-.19,10.72c.57,6.48,4.65,9.19,11,7.72a20.72,20.72,0,0,0,11-7c5.43-6.22,8.24-13.68,9.74-21.66,2.61-13.8,2.24-27.49-2.84-40.71-7.31-19-21.43-30.51-41.1-34.87-21.07-4.67-41.15-1.79-59.47,10.09-16.56,10.74-27,26.06-32.06,45s-5.2,38.19,2.21,56.76c8.34,20.9,24.27,32.92,46,37.39,16.07,3.29,31.89,1.64,47.43-3.36,4.22-1.36,8.07.11,10,3.66a7.89,7.89,0,0,1-4.36,11.24,101,101,0,0,1-26.2,6.11c-12.88,1.23-25.76,1.19-38.32-2.38-31.28-8.9-50.91-29.12-58.44-60.84-1-4-1.22-8.19-1.82-12.29-.08-.54-.24-1.08-.36-1.61Zm68.78,7.6c.14,1.49.23,3.32.52,5.12,1.29,7.87,6.7,12.36,14.28,11.24a18.46,18.46,0,0,0,8-3.5c6.7-5,10.49-12.08,12.25-20.07,1.57-7.12,2.45-14.39,3.62-21.6.86-5.24-2.53-9.06-7.88-8.92a26.12,26.12,0,0,0-15.77,5.7C73.5,78.8,69.39,89.79,68.78,102.78Z"/>
		</g>
	</g>
</svg>