<svg xmlns="http://www.w3.org/2000/svg" viewBox="0 0 490.62 145.56"><defs><style>.cls-1{fill:#fff;}</style></defs><g id="Слой_2" data-name="Слой 2"><g id="Слой_1-2" data-name="Слой 1"><path class="cls-1" d="M232,145.44c-64.13,0-128.26.09-192.39-.06-22.87-.06-35.28-8.29-39.15-27.77C-1,110.2,1.1,101.39,3.7,94,16.45,57.38,34.33,24.14,72.52,8.47a109.64,109.64,0,0,1,40-8C217.13-.17,321.73-.06,426.32.24c23.17.07,45,4.77,56.22,28.66,15.19,32.3,10.12,90.09-25.23,107-10.51,5-22.7,9-34.18,9.13C359.44,145.89,295.73,145.44,232,145.44Z"/></g></g></svg>