<svg xmlns="http://www.w3.org/2000/svg" viewBox="0 0 272.6 409.36"><defs><style>.cls-1{fill:#fff;}</style></defs><g id="Слой_2" data-name="Слой 2"><g id="Слой_1-2" data-name="Слой 1"><path class="cls-1" d="M134,409.36c-2.2-2.39-5-4.45-6.49-7.2Q72.4,303,17.58,203.67c-13.85-25-20.06-52-16.67-80.32C6.79,74,31.8,36.72,76.64,14.83,123-7.8,169-4.33,212,23.86c33.89,22.22,53.52,54.48,59.23,94.74,4.24,29.94-1.33,58.25-15.93,84.7q-54.9,99.49-110,198.86c-1.53,2.75-4.3,4.81-6.49,7.2Zm2.82-340.69C100,68,69.12,98.28,68.34,135.9c-.78,37.24,29.42,68.35,67,69s68.4-29.46,69-67.39C205,100.13,174.88,69.41,136.79,68.67Z"/></g></g></svg>