<svg xmlns="http://www.w3.org/2000/svg" viewBox="0 0 511.43 449.11"><defs><style>.cls-1{fill:#fff;}</style></defs><g id="Слой_2" data-name="Слой 2"><g id="Слой_1-2" data-name="Слой 1"><path class="cls-1" d="M350.5,269.24H176.65c-13.23-59.5-39.8-179-39.8-179l-6.69-30.28S123.29,29,119.83,13.76c-2-8.79-7-13.59-15.35-13.64Q59.57-.15,14.66.12C8.26.15,3.6,3.57,1.16,9.5-3,19.52,4.39,29.84,15.82,29.93c17.47.14,34.93,0,52.4,0H92.79q27.08,121.8,54,243.07c-1.36.79-2.47,1.47-3.61,2.09a44.51,44.51,0,0,0-21.29,52.41c6,19.27,22.89,31.5,44.07,31.77,7.16.09,14.32,0,21.48,0-23.17,5.38-39.27,25.23-37.61,47,1.85,24.23,19.83,41.82,43.75,42.8,21.08.87,41.61-15.77,45-36.3,2.07-12.4-.15-23.87-7.29-34.16S214,362.28,201.79,359.55H400.18c-28,5.89-40.46,28.18-38.52,48.06,2.36,24.17,21,41.32,44.37,41.5,21.5.17,41.41-16.56,44.25-37.17C453.83,386.19,440,366.7,412,359.32h20.19c12,0,18.93-5.51,18.93-15s-7-15-18.94-15H168.69c-11.94,0-18.95-5.55-18.93-15s6.94-15,18.94-15h264c11.1,0,15.69-3.4,18.72-14l.05-.17a12.58,12.58,0,0,0-12.09-16H350.5Zm70.65,134.88a14.94,14.94,0,1,1-15-14.82A15.07,15.07,0,0,1,421.15,404.12Zm-211.59.07a14.93,14.93,0,1,1-15-14.89A15.08,15.08,0,0,1,209.56,404.19Z"/><path class="cls-1" d="M490.9,59.78Q340.45,60,190,59.91a15.14,15.14,0,0,0-14.78,18.41h0A15.14,15.14,0,0,0,190,90.19H476.1Q457,157.06,438,223.63a15,15,0,0,0,14.37,19.05h0a14.94,14.94,0,0,0,14.37-10.83Q483.36,173.64,500,115.44c3.64-12.7,7.6-25.31,11.39-38l-.38-6.5C507.07,62.26,500.19,59.76,490.9,59.78Z"/></g></g></svg>