<svg xmlns="http://www.w3.org/2000/svg" viewBox="0 0 113.72 210.41"><defs><style>.cls-1{fill:#fff;}</style></defs><g id="Слой_2" data-name="Слой 2"><g id="Слой_1-2" data-name="Слой 1"><path class="cls-1" d="M35.08,210.41c-2.58-1-3.39-3-3.38-5.68q.09-41.61,0-83.21v-2.71H5.55c-4,0-5.52-1.44-5.53-5.38Q0,97.2,0,81c0-3.8,1.58-5.31,5.42-5.32q11.93,0,23.83,0h2.46V73.27c0-8.36-.18-16.72.15-25.06.47-12.08,4-23.15,12.1-32.41A42.47,42.47,0,0,1,72.22,1c10-1,20.23-.7,30.35-.95,2.12,0,4.24-.06,6.37,0,3.06.1,4.72,1.69,4.74,4.74q.07,15.62,0,31.23c0,3.17-1.7,4.66-5,4.71-7.19.11-14.38.05-21.56.33-3.78.15-7.45,1.25-9.3,5a15,15,0,0,0-1.61,6.07c-.18,7.73-.07,15.47-.07,23.53h2.17q14.17,0,28.35,0c4.23,0,5.7,1.45,5.7,5.66q0,16,0,32.05c0,4-1.47,5.44-5.46,5.45H76.11v2.58q0,41.49,0,83c0,2.69-.66,4.83-3.26,6Z"/></g></g></svg>