<svg xmlns="http://www.w3.org/2000/svg" viewBox="0 0 169.25 192.36">
	<defs>
		<style>.cls-1{fill:#fff;}</style>
	</defs>
	<g id="Слой_2" data-name="Слой 2">
		<g id="Слой_1-2" data-name="Слой 1">
			<g id="Cart">
				<path class="cls-1" d="M147.26,192.36H22a22,22,0,0,1-22-23l4-88A26.72,26.72,0,0,1,30.71,55.83H138.53a26.72,26.72,0,0,1,26.75,25.58l3.95,88a22,22,0,0,1-22,23ZM30.71,70.83A11.75,11.75,0,0,0,19,82.08l-3.94,88a7,7,0,0,0,7,7.3H147.26a7,7,0,0,0,7-7.3l-3.94-88a11.76,11.76,0,0,0-11.77-11.25Z"/>
				<path class="cls-1" d="M127.86,100.11a7.5,7.5,0,0,1-7.5-7.5c0-68.79-19.1-77.61-35.74-77.61-12.91,0-21.17,5.18-26.8,16.79-6,12.41-8.93,32.3-8.93,60.82a7.5,7.5,0,0,1-15,0c0-31.26,3.31-52.67,10.43-67.36C52.44,8.5,66,0,84.62,0c45.48,0,50.74,52.85,50.74,92.61A7.5,7.5,0,0,1,127.86,100.11Z"/>
			</g>
		</g>
	</g>
</svg>